<svg width="1631" height="249" viewBox="0 0 1631 249" fill="none" xmlns="http://www.w3.org/2000/svg">
<path d="M154.17 -1.66893e-05L181.47 47.6L179.02 48.65L171.67 35.35C159.07 13.3 140.52 2.44999 111.82 2.44999H42.5195V107.8H91.1695C102.37 107.8 111.47 99.05 111.47 87.85V78.4H113.92V140H111.47V130.55C111.47 119.35 102.37 110.6 91.1695 110.6H42.5195V229.25C42.5195 236.6 48.4695 242.55 56.1695 242.55H68.0695V245H0.169532V242.55H12.4195C19.7695 242.55 25.7195 236.6 25.7195 229.25V15.75C25.7195 8.39998 19.7695 2.44999 12.4195 2.44999H0.169532V-1.66893e-05H154.17ZM250.195 24.85C243.545 24.85 237.945 30.1 237.945 36.75V230.65C237.945 237.3 243.545 242.9 250.195 242.9H261.395V245H199.445V242.9H210.645C217.295 242.9 222.895 237.3 222.895 230.65V36.75C222.895 30.1 217.295 24.85 210.645 24.85H199.445V22.4H261.395V24.85H250.195ZM458.82 22.4H507.47V24.85H496.62C489.62 24.85 484.37 30.1 484.37 36.75V245H481.92L311.47 28V230.65C311.47 237.3 317.07 242.9 323.72 242.9H334.92V245H285.92V242.9H297.12C303.77 242.9 309.37 237.3 309.37 230.65V36.75C309.37 30.1 303.77 24.85 297.12 24.85H285.92V22.4H327.22L481.92 218.4V36.75C481.92 30.1 476.67 24.85 470.02 24.85H458.82V22.4ZM726.225 242.9H735.325V245H673.725V242.9H686.675C691.575 242.9 695.075 238 692.975 233.45L667.425 168.7H564.175L538.625 233.45C536.875 238 540.025 242.9 544.925 242.9H559.625V245H510.625V242.9H519.025C527.075 242.9 534.075 238 536.875 230.65L619.475 22.4H625.775L708.725 230.65C711.525 238 718.525 242.9 726.225 242.9ZM564.875 166.6H666.725L615.975 38.85L564.875 166.6ZM924.689 22.4H973.339V24.85H962.489C955.489 24.85 950.239 30.1 950.239 36.75V245H947.789L777.339 28V230.65C777.339 237.3 782.939 242.9 789.589 242.9H800.789V245H751.789V242.9H762.989C769.639 242.9 775.239 237.3 775.239 230.65V36.75C775.239 30.1 769.639 24.85 762.989 24.85H751.789V22.4H793.089L947.789 218.4V36.75C947.789 30.1 942.539 24.85 935.889 24.85H924.689V22.4ZM1208.81 173.6L1211.26 173.95L1203.56 210.7L1203.21 211.05C1202.16 213.15 1173.11 248.15 1115.36 248.15H1107.66C1042.56 248.15 992.513 200.2 992.513 133.7C992.513 67.2 1042.56 19.25 1107.66 19.25H1115.36C1168.21 19.25 1191.31 45.85 1191.31 45.85L1201.46 71.4L1199.71 72.1L1198.66 70C1180.81 38.15 1146.51 21.7 1111.51 21.7C1047.81 21.7 1007.56 73.85 1007.56 133.7C1007.56 191.8 1045.71 245.35 1111.51 245.35C1157.36 245.35 1197.61 212.8 1208.81 173.6ZM1398.74 181.3L1401.19 181.65L1383.69 245H1226.54V242.9H1237.74C1244.39 242.9 1249.99 237.3 1249.99 230.65V36.75C1249.99 30.1 1244.39 24.85 1237.74 24.85H1226.54V22.4H1366.54L1391.04 65.45L1389.29 66.5L1382.29 54.6C1370.74 34.65 1354.29 24.85 1328.04 24.85H1265.04V120.4H1309.14C1319.29 120.4 1327.69 112.35 1327.69 102.2V93.8H1329.79V149.45H1327.69V141.05C1327.69 130.9 1319.29 122.85 1309.14 122.85H1265.04V230.65C1265.04 237.3 1270.64 242.9 1277.29 242.9H1344.49C1367.94 242.9 1387.19 224.35 1392.79 203L1398.74 181.3ZM1630.2 238.35L1630.9 240.45C1630.9 240.45 1621.8 246.4 1607.8 246.4C1567.55 246.4 1574.2 211.05 1546.55 158.55C1538.85 143.5 1525.55 142.1 1511.55 142.1H1465V230.65C1465 237.3 1470.6 242.9 1477.25 242.9H1488.45V245H1426.5V242.9H1437.7C1444.35 242.9 1449.95 237.3 1449.95 230.65V36.75C1449.95 30.1 1444.35 24.85 1437.7 24.85H1426.5V22.4C1426.5 22.4 1514.35 22.4 1531.15 22.4C1575.6 22.4 1597.3 49 1597.3 82.25C1597.3 109.2 1572.45 140 1528.35 141.75C1539.2 142.45 1549 146.3 1558.45 158.9C1581.9 190.05 1587.15 246.4 1627.75 239.05C1628.45 239.05 1630.2 238.35 1630.2 238.35ZM1465 140H1523.45C1556.35 140 1581.9 121.45 1581.9 82.25C1581.9 47.25 1568.6 24.85 1524.5 24.85H1465V140Z" fill="white"/>
</svg>
